<svg xmlns="http://www.w3.org/2000/svg" viewBox="0 0 36 36">
  <!-- Background leaf (Darkest) -->
  <path fill="#3a4d2b" d="M12.875 35.882c-6.861-.755-12.242-8.513-12.75-14.75C-.383 14.896 2.375 7.132 8.375 3.382c4.898-3.061 12.019-3.791 18.25-2 8.28 2.38 8.875 10.75 9.125 15.5.241 4.582-.249 11.5-6.125 16.625-5.031 4.388-11.776 3.633-16.75 2.375z"/>
  <!-- Main leaf (Primary color #4b6338 but slightly lighter) -->
  <path fill="#637c4e" d="M16 35c-5.834-1.25-9.308-6.182-10.5-12-.992-4.845-.5-9.625 3-14 4.083-5.104 10.75-5.5 16-4.5 7 1.333 9.808 6.182 11 12 1.05 4.86.375 10-2.875 14.5-3.344 4.631-9.421 5.568-16.625 4z"/>
  <!-- Veins (Lighter highlight #a2b88f) -->
  <path fill="#a2b88f" d="M32.625 31s-3.5 1.75-8.5 2-8.25-1-8.25-1-1.375-3.625-1-6.875 1.75-6 1.75-6l3.75 1.125s1.25-3.25 1.625-5S21.625 11 21.625 11l4.25.625s.625-2.875.75-4.5-1-3.625-1-3.625c4.75 1.625 6.75 6.25 7.25 9s-.25 7.25-1.5 10-3 6.625-3 6.625-1.75-1-2.25-2.625 1.5-1.875 1.5-1.875 1.125 4.125 5.25 6.375z"/>
</svg>